<svg width="32" height="32" xmlns="http://www.w3.org/2000/svg">

 <g>
  <title>background</title>
  <rect fill="none" id="canvas_background" height="402" width="582" y="-1" x="-1"/>
 </g>
 <g>
  <title>Layer 1</title>
  <path id="pen" fill="#fcf9f9" d="m29.395,2.58c-1.645,-1.643 -3.811,-2.58 -5.946,-2.58c-1.801,0 -3.459,0.668 -4.67,1.877l-4.867,4.904c-0.015,0.014 -0.032,0.023 -0.047,0.038c-0.008,0.008 -0.013,0.019 -0.021,0.026l0.002,0.002l-10.329,10.409c-0.476,0.473 -0.821,1.062 -1.013,1.705l-2.349,8.508c-0.002,0.023 -0.155,0.691 -0.155,1.031c0,1.932 1.569,3.5 3.504,3.5c0.385,0 1.13,-0.184 1.157,-0.188l8.478,-2.229c0.644,-0.191 1.229,-0.539 1.705,-1.016l15.263,-15.383c2.776,-2.778 2.463,-7.434 -0.712,-10.604zm-13.381,21.215c-0.082,-0.902 -0.337,-1.787 -0.719,-2.627l9.455,-9.454c0.578,1.826 0.281,3.736 -0.986,5.004c-0.008,0.008 -0.018,0.013 -0.025,0.021l0.014,0.013l-7.728,7.79c0,-0.249 0.012,-0.493 -0.011,-0.747zm-1.221,-3.539c-0.373,-0.613 -0.797,-1.205 -1.322,-1.729c-0.611,-0.611 -1.312,-1.09 -2.044,-1.492l9.532,-9.532c0.748,0.332 1.465,0.805 2.098,1.438c0.541,0.539 0.959,1.143 1.281,1.771l-9.545,9.544zm-4.307,-3.694c-0.926,-0.373 -1.896,-0.586 -2.868,-0.599l7.703,-7.762c1.179,-1.15 2.896,-1.481 4.587,-1.062l-9.422,9.423zm-6.319,13.311c-0.109,0.025 -0.448,0.111 -0.678,0.127c-0.822,-0.01 -1.489,-0.678 -1.489,-1.5c0.012,-0.168 0.079,-0.457 0.102,-0.562l1.053,-3.814c1.143,-0.031 2.373,0.414 3.34,1.383c0.982,0.98 1.444,2.234 1.394,3.391l-3.722,0.975zm4.707,-1.236c-0.024,-1.342 -0.57,-2.738 -1.672,-3.838c-1.042,-1.043 -2.406,-1.645 -3.766,-1.699l0.996,-3.607c0.072,-0.24 0.215,-0.477 0.391,-0.684c2.006,-1.436 5.091,-1.012 7.234,1.133c2.267,2.266 2.617,5.586 0.871,7.568c-0.116,0.061 -0.233,0.119 -0.359,0.156l-3.695,0.971zm19.817,-16.865l-1.684,1.697c0,-0.226 0.027,-0.443 0.006,-0.674c-0.176,-1.935 -1.078,-3.806 -2.543,-5.269c-1.629,-1.63 -3.789,-2.565 -5.928,-2.571l1.656,-1.67c0.829,-0.827 1.986,-1.285 3.251,-1.285c1.609,0 3.262,0.728 4.533,1.995c1.193,1.191 1.904,2.671 2.006,4.168c0.094,1.397 -0.367,2.678 -1.297,3.609z"/>
 </g>
</svg>